<?xml version="1.0" encoding="UTF-8"?> <svg xmlns="http://www.w3.org/2000/svg" xmlns:xlink="http://www.w3.org/1999/xlink" xmlns:xodm="http://www.corel.com/coreldraw/odm/2003" xml:space="preserve" width="6.161mm" height="6.161mm" version="1.1" style="shape-rendering:geometricPrecision; text-rendering:geometricPrecision; image-rendering:optimizeQuality; fill-rule:evenodd; clip-rule:evenodd" viewBox="0 0 616.1 616.1"> <defs> <style type="text/css"> .fil0 {fill:#FCDFB1;fill-rule:nonzero} .fil1 {fill:black;fill-rule:nonzero} </style> </defs> <g id="Слой_x0020_1"> <metadata id="CorelCorpID_0Corel-Layer"></metadata> <g id="_1748770549728"> <circle class="fil0" cx="382.33" cy="278.74" r="221.71"></circle> <path class="fil1" d="M147.36 524.03c-0.78,-17.55 -0.09,-78.27 40.73,-127.66 2.16,-2.14 52.91,-53.76 55.76,-122.65 0.51,-3.25 13.63,-80.31 82.77,-96.19 17.52,-0.18 34,-7.61 46.43,-20.98 12.6,-13.56 19.51,-31.57 19.51,-50.6l0 -13c0,-1.85 -0.7,-3.62 -1.9,-4.92 -1.21,-1.3 -2.85,-2.04 -4.58,-2.04l-46.26 0.09c-9.84,-10.03 -53.51,-50.13 -100.46,-27.76 -3.88,1.39 -21.66,9.66 -34.35,45.68 -0.08,0.18 -0.17,0.28 -0.17,0.47 0,0.09 0,0.18 -0.09,0.27 -2.59,7.43 -4.92,15.79 -6.9,25.63 -0.17,0.93 -19.68,92.19 -189.54,86.25 -3.45,-0.28 -6.55,2.88 -6.64,6.68 -0.09,3.81 2.67,7.06 6.3,7.16 145.08,5.1 187.2,-57.47 198.59,-84.86 6.82,23.39 22.36,39.27 39.01,39.27 1.56,0 3.11,-0.09 4.75,-0.47 10.45,-1.85 19.16,-9.84 24.43,-22.56 4.92,-11.69 6.38,-26.18 4.06,-40.85 -1.9,-12.53 -6.39,-23.85 -12.78,-32.86 -2.16,-3.06 -6.21,-3.62 -9.06,-1.3 -2.85,2.32 -3.37,6.69 -1.21,9.75 5.09,7.06 8.72,16.52 10.27,26.65 1.81,11.97 0.78,23.58 -3.11,32.77 -3.45,8.27 -8.71,13.47 -14.84,14.49 -13.29,2.41 -27.62,-15.23 -31.24,-38.44 -1.3,-8.26 -1.13,-16.62 0.43,-24.05 11.22,-31.57 25.89,-36.77 25.98,-36.77 0.34,-0.09 0.69,-0.18 1.03,-0.37 44.11,-21.26 87.78,26.28 88.21,26.74 1.21,1.4 2.94,2.14 4.66,2.14l42.38 -0.1 0 6.04c0,15.32 -5.61,29.8 -15.71,40.76 -10.18,10.95 -23.65,16.9 -37.97,16.9 -0.44,0 -0.87,0.09 -1.3,0.18 -78.45,17.55 -93.3,106.77 -93.56,108.53 -2.67,63.88 -51.26,113.45 -52.13,114.39 -52.3,63.23 -44.45,140.75 -44.02,144 0.35,3.16 2.68,5.76 5.7,6.13 12.43,1.58 17.44,15.32 19.34,24.14l-36.25 0c-15.36,-43.63 -16.14,-169.07 -16.14,-170.37l0 -0.18 0 -31.76c0,-3.81 -2.94,-6.96 -6.47,-6.96 -3.55,-0.02 -6.57,3.23 -6.57,7.14l0 24.88c-18.82,-0.84 -47.38,-5.95 -84.84,-15.42 -3.45,-0.83 -6.99,1.39 -7.77,5.2 -0.86,3.71 1.3,7.52 4.83,8.36 38.5,9.74 68.01,15.13 87.86,15.87 0.44,28.6 2.94,136.2 18.9,173.33 1.04,2.51 3.37,4.09 5.87,4.09l48.16 0c1.81,0 3.54,-0.83 4.75,-2.23 1.21,-1.39 1.81,-3.34 1.72,-5.19 -0.17,-1.68 -2.58,-36.03 -26.57,-43.46l0 0.02z"></path> <path class="fil1" d="M543.25 309.67c3.54,0 6.47,-3.16 6.47,-6.96l0 -20.98c0,-3.81 -2.93,-6.97 -6.47,-6.97 -27.71,0 -50.32,-24.23 -50.32,-54.12 0,-3.81 -2.93,-6.96 -6.47,-6.96l-168.56 -0.01c-3.54,0 -6.47,3.16 -6.47,6.96 0,29.81 -22.53,54.13 -50.32,54.13 -3.53,0 -6.47,3.16 -6.47,6.96l0 95.26c0,13.09 1.3,26.46 3.97,39.64 15.71,77.99 70.17,138.52 142.06,157.93 0.52,0.19 1.04,0.19 1.56,0.19 0.51,0 1.03,-0.1 1.55,-0.19 71.89,-19.49 126.26,-80.03 141.97,-157.93 2.59,-13.18 3.97,-26.55 3.97,-39.64l0 -43.82c0,-3.81 -2.94,-6.96 -6.48,-6.96 -3.54,0 -6.47,3.16 -6.47,6.96l0 43.82c0,12.16 -1.2,24.51 -3.62,36.77 -14.5,72.13 -64.56,128.31 -130.84,146.97 -66.29,-18.56 -116.43,-74.74 -130.93,-146.97 -2.41,-12.25 -3.62,-24.6 -3.62,-36.77l0 -88.57c29.69,-3.25 53.43,-28.79 56.45,-60.72l156.3 0c3.02,31.94 26.76,57.47 56.44,60.72l0 14.3c-0.17,3.8 2.76,6.96 6.3,6.96l0 0z"></path> <path class="fil1" d="M464.37 255.69c-1.04,-2.6 -3.37,-4.27 -5.96,-4.27l-112.37 0c-2.59,0 -5,1.67 -5.95,4.27 -8.63,22.38 -25.46,40.48 -46.26,49.76 -2.42,1.12 -3.97,3.62 -3.97,6.41l0 64.99c0,10.49 1.04,21.17 3.19,31.66 12.26,60.81 52.39,108.07 107.37,126.64 0.6,0.18 1.29,0.28 1.89,0.28 0.61,0 1.3,-0.1 1.91,-0.28 54.97,-18.57 95.11,-65.83 107.27,-126.55 2.07,-10.58 3.19,-21.26 3.19,-31.75l0 -65c0,-2.78 -1.55,-5.38 -3.97,-6.4 -20.89,-9.29 -37.71,-27.39 -46.34,-49.76l0 0zm37.28 121.25c0,9.57 -0.95,19.22 -2.85,28.88 -11.04,55.05 -47.12,98.04 -96.57,115.49 -49.46,-17.45 -85.53,-60.53 -96.67,-115.59 -1.9,-9.56 -2.85,-19.22 -2.85,-28.79l0 -60.44c20.8,-10.49 37.81,-28.78 47.56,-51.15l103.91 0c9.75,22.37 26.76,40.66 47.56,51.15l0 60.45 -0.09 0z"></path> <path class="fil1" d="M402.22 369.07c-14.15,0 -27.44,6.04 -37.63,16.99 -15.88,17.09 -21.66,42.06 -15.19,65.18 1.04,3.71 4.57,5.75 8.03,4.64 3.45,-1.11 5.35,-5.01 4.31,-8.73 -5.09,-18.19 -0.51,-37.88 11.92,-51.25 7.68,-8.26 17.86,-12.9 28.48,-12.9 10.62,0 20.8,4.55 28.48,12.9 12.43,13.37 17,33.06 11.91,51.25 -0.51,1.77 -1.81,2.42 -2.5,2.7 -0.69,0.18 -2.25,0.55 -3.8,-0.84 -5.27,-4.73 -11.57,-8.35 -18.56,-10.68 -10.18,-3.34 -21.31,-3.34 -31.5,0.1 -6.82,2.32 -12.94,5.85 -18.12,10.58 -2.76,2.42 -3.11,6.87 -0.86,9.84 2.24,2.97 6.38,3.34 9.14,0.93 3.97,-3.53 8.46,-6.13 13.81,-7.99 7.6,-2.6 16.05,-2.6 23.74,-0.09 5.43,1.77 10.01,4.46 14.06,8.08 3.11,2.79 6.91,4.27 10.88,4.27 1.64,0 3.28,-0.28 4.92,-0.75 5.43,-1.76 9.58,-6.21 11.22,-11.97 6.47,-23.12 0.69,-48.1 -15.19,-65.17 -10.1,-11.05 -23.48,-17.09 -37.55,-17.09l0 0z"></path> <path class="fil1" d="M425.27 356.33c1.21,0.28 2.41,0.47 3.62,0.47 5.01,0 10.1,-2.32 14.33,-6.59 4.75,-4.74 8.2,-11.7 9.75,-19.41 1.56,-7.7 1.12,-15.5 -1.38,-22 -2.76,-7.24 -7.86,-12.26 -13.99,-13.65 -11.99,-2.79 -24.25,8.36 -27.7,25.53 -1.56,7.71 -1.04,15.5 1.38,22 2.77,7.25 7.86,12.17 13.99,13.65l0 0zm-2.68 -32.68c1.82,-9.01 7.25,-15.04 11.4,-15.04 0.34,0 0.6,0 0.86,0.09 2.59,0.56 4.05,3.63 4.75,5.29 1.46,3.81 1.72,8.83 0.69,13.75 -1.04,4.92 -3.2,9.37 -5.96,12.16 -1.29,1.3 -3.8,3.24 -6.3,2.69 -2.59,-0.56 -4.06,-3.62 -4.75,-5.29 -1.38,-3.71 -1.63,-8.72 -0.69,-13.65l0 0z"></path> <path class="fil1" d="M463.42 344.03c-5.01,3.16 -9.23,8.45 -11.99,14.85 -2.76,6.41 -3.71,13.28 -2.76,19.41 1.12,6.96 4.74,12.53 9.92,15.13 2.16,1.12 4.49,1.58 6.82,1.58 8.54,0 17.44,-6.87 22.27,-18.11 2.76,-6.4 3.71,-13.27 2.76,-19.4 -1.12,-6.96 -4.75,-12.53 -9.93,-15.04 -5.18,-2.69 -11.39,-2.13 -17.09,1.58l0 0zm11.65 10.96c1.82,0.93 2.42,3.62 2.59,4.74 0.52,3.34 -0.09,7.42 -1.72,11.23 -3.11,7.24 -8.98,11.14 -11.91,9.66 -1.81,-0.93 -2.42,-3.63 -2.6,-4.84 -0.51,-3.34 0.09,-7.42 1.73,-11.23 1.64,-3.81 4.14,-6.96 6.82,-8.73 0.69,-0.46 2.16,-1.3 3.62,-1.3 0.52,0.19 1.04,0.28 1.47,0.47l0 0z"></path> <path class="fil1" d="M375.38 356.8c1.21,0 2.5,-0.19 3.71,-0.47 12.08,-2.79 18.81,-18.48 15.36,-35.65 -3.45,-17.17 -15.7,-28.32 -27.7,-25.53 -6.13,1.39 -11.23,6.41 -13.99,13.65 -2.41,6.49 -2.93,14.3 -1.38,22 3.11,15.32 13.21,26 24,26l0 0zm-10.62 -42.71c0.69,-1.76 2.16,-4.74 4.75,-5.29 0.26,-0.1 0.6,-0.1 0.86,-0.1 4.15,0 9.58,5.95 11.39,15.04 1.99,9.76 -1.2,18.11 -5.43,19.04 -4.14,0.93 -10.36,-5.2 -12.34,-14.95 -0.95,-4.92 -0.69,-9.93 0.77,-13.74l0 0z"></path> <path class="fil1" d="M355.79 378.28c0.95,-6.13 0,-13.09 -2.76,-19.41 -2.76,-6.4 -6.99,-11.69 -12,-14.85 -5.7,-3.62 -11.91,-4.27 -17.09,-1.67 -5.18,2.6 -8.8,8.08 -9.93,15.04 -0.94,6.13 0,13.09 2.77,19.41 4.83,11.23 13.72,18.1 22.26,18.1 2.33,0 4.66,-0.55 6.82,-1.58 5.18,-2.51 8.81,-8.08 9.93,-15.04l0 0zm-15.37 2.41c-3.01,1.49 -8.8,-2.41 -11.91,-9.66 -1.64,-3.81 -2.24,-7.89 -1.72,-11.23 0.17,-1.11 0.77,-3.9 2.59,-4.73 0.43,-0.19 0.95,-0.28 1.38,-0.28 1.47,0 2.94,0.83 3.71,1.3 2.68,1.76 5.18,4.92 6.82,8.72 1.64,3.81 2.25,7.89 1.73,11.24 -0.18,1.02 -0.78,3.81 -2.6,4.64l0 0z"></path> <path class="fil1" d="M213.56 510.97c-10.09,-15.5 -16.48,-43.26 -18.55,-80.49 -0.26,-3.81 -3.28,-6.87 -6.82,-6.5 -3.54,0.18 -6.3,3.52 -6.04,7.33 2.33,41.88 9.84,72.05 22.27,89.69 0.77,1.12 1.9,1.95 3.1,2.42 0.35,0.09 33.32,11.97 36.08,37.41l-31.5 0c-5.7,-6.13 -23.91,-27.2 -39.27,-59.51 -1.64,-3.43 -5.52,-4.83 -8.72,-3.06 -3.19,1.76 -4.49,5.94 -2.85,9.37 19.42,40.95 42.81,64.25 43.76,65.27 1.21,1.21 2.76,1.86 4.4,1.86l40.66 0c3.36,0 6.12,-2.79 6.47,-6.31 3.1,-36.31 -33.66,-53.67 -42.99,-57.48l0 0z"></path> </g> </g> </svg> 