<?xml version="1.0" encoding="UTF-8"?> <svg xmlns="http://www.w3.org/2000/svg" xmlns:xlink="http://www.w3.org/1999/xlink" xmlns:xodm="http://www.corel.com/coreldraw/odm/2003" xml:space="preserve" width="6.161mm" height="6.161mm" version="1.1" style="shape-rendering:geometricPrecision; text-rendering:geometricPrecision; image-rendering:optimizeQuality; fill-rule:evenodd; clip-rule:evenodd" viewBox="0 0 616.1 616.1"> <defs> <style type="text/css"> .fil0 {fill:#FCDFB1;fill-rule:nonzero} .fil1 {fill:black;fill-rule:nonzero} </style> </defs> <g id="Слой_x0020_1"> <metadata id="CorelCorpID_0Corel-Layer"></metadata> <g id="_1785187778592"> <circle class="fil0" cx="387.24" cy="274.87" r="223.67"></circle> <path class="fil1" d="M185.44 464.42c9.16,2.98 18.92,0.84 26.18,-5.76 8.9,-7.9 18.92,-13.76 30.67,-17.76 17.02,-5.76 35.77,-5.85 52.88,-0.18 12.01,3.99 22.29,9.85 31.27,17.94 5.11,4.55 11.5,6.97 17.98,6.97 2.67,0 5.44,-0.47 8.12,-1.3 8.9,-2.88 15.81,-10.23 18.49,-19.71 12.61,-44.98 1.38,-93.5 -29.47,-126.58 -31.1,-33.46 -76.63,-42.2 -115.95,-22.21 -3.28,1.67 -4.67,5.76 -3.11,9.29 1.55,3.44 5.36,4.92 8.64,3.35 34.3,-17.48 74.04,-9.85 101.26,19.51 27.39,29.56 37.5,72.68 26.18,112.74 -1.47,5.02 -5.01,8.83 -9.76,10.41 -4.93,1.58 -10.2,0.47 -14.08,-3.07 -10.37,-9.29 -22.04,-15.98 -35.78,-20.54 -19.61,-6.5 -41.12,-6.41 -60.65,0.19 -13.39,4.55 -24.88,11.24 -35.08,20.35 -3.97,3.53 -9.24,4.74 -14.17,3.07 -4.75,-1.58 -8.29,-5.3 -9.76,-10.31 -11.23,-40.06 -1.2,-83.19 26.18,-112.74 2.51,-2.7 2.51,-7.16 0,-9.85 -2.5,-2.7 -6.65,-2.7 -9.15,0 -30.84,33.18 -42.08,81.69 -29.47,126.58 2.85,9.39 9.76,16.73 18.58,19.61l0 0z"></path> <path class="fil1" d="M332.58 146.67c-22.2,-5.21 -45.97,17.56 -52.71,50.84 -6.82,33.83 5.62,64.41 28.26,69.8 2.25,0.56 4.49,0.74 6.74,0.74 20.39,0 39.74,-21.1 45.96,-51.58 6.74,-33.37 -5.96,-64.6 -28.25,-69.8l0 0zm15.64 66.73c-5.1,25.28 -22.12,43.68 -37.24,40.15 -15.03,-3.53 -23.5,-27.88 -18.4,-53.16 4.66,-23.24 19.43,-40.62 33.52,-40.62 1.3,0 2.5,0.19 3.8,0.47 14.95,3.53 23.41,27.88 18.32,53.16l0 0z"></path> <path class="fil1" d="M352.38 307.91c2.07,13.11 8.38,22.86 17.71,27.51 3.89,1.95 7.95,2.79 12.1,2.79 15.98,0 33.09,-13.66 42.6,-35.69 5.53,-12.83 7.52,-26.49 5.53,-38.57 -2.07,-13.11 -8.38,-22.86 -17.72,-27.51 -9.33,-4.64 -20.3,-3.53 -30.93,3.25 -9.84,6.23 -18.23,16.73 -23.76,29.56 -5.44,12.83 -7.43,26.49 -5.53,38.66l0 0zm17.37 -32.8c4.41,-10.23 11.06,-18.59 18.58,-23.43 4.23,-2.69 8.46,-4.09 12.35,-4.09 2.33,0 4.5,0.47 6.57,1.49 5.35,2.7 9.07,8.74 10.37,17.19 1.46,9.39 -0.17,20.17 -4.58,30.39 -8.55,19.99 -25.75,31.79 -37.5,26.03 -5.36,-2.69 -9.07,-8.74 -10.37,-17.19 -1.47,-9.29 0.17,-20.17 4.58,-30.39l0 0z"></path> <path class="fil1" d="M223.37 267.93c2.24,0 4.49,-0.28 6.65,-0.74 11.23,-2.6 20.39,-11.71 25.57,-25.47 4.93,-12.92 5.88,-28.63 2.68,-44.24 -6.83,-33.84 -29.98,-56.14 -52.62,-50.85 -11.23,2.61 -20.39,11.72 -25.57,25.47 -4.92,12.92 -5.87,28.63 -2.68,44.24 3.2,15.62 10.11,29.56 19.53,39.04 8.04,8.28 17.28,12.55 26.44,12.55l0 0zm-31.36 -90.62c3.54,-9.39 9.41,-15.52 16.32,-17.1 1.21,-0.28 2.51,-0.47 3.81,-0.47 14.08,0 28.77,17.38 33.43,40.62 2.6,12.92 1.91,25.74 -1.99,36.06 -3.54,9.39 -9.41,15.52 -16.32,17.1 -6.92,1.58 -14.61,-1.3 -21.52,-8.27 -7.52,-7.62 -13.13,-18.96 -15.72,-31.88 -2.68,-12.91 -1.9,-25.74 1.99,-36.06l0 0z"></path> <path class="fil1" d="M125.51 236.44c-9.33,4.65 -15.64,14.41 -17.72,27.51 -1.9,12.08 0.09,25.84 5.53,38.57 9.5,22.03 26.62,35.69 42.6,35.69 4.15,0 8.21,-0.93 12.09,-2.79 18.76,-9.29 24.11,-38.39 12.19,-66.08 -11.92,-27.79 -35.94,-42.19 -54.69,-32.9l0 0zm37.15 86.25c-11.75,5.85 -28.95,-6.04 -37.5,-26.03 -4.41,-10.22 -6.05,-21.09 -4.58,-30.39 1.3,-8.36 5.01,-14.5 10.37,-17.19 1.99,-1.02 4.24,-1.49 6.48,-1.49 10.89,0 23.94,10.97 31.02,27.51 8.55,19.99 5.96,41.74 -5.79,47.59l0 0z"></path> <path class="fil1" d="M392.46 54.83c-49.68,0 -95.03,25.65 -123.37,69.15 -28.34,-43.5 -73.7,-69.15 -123.38,-69.15 -83.2,0 -150.94,72.77 -150.94,162.37 0,185.52 259.98,350.3 271.04,357.28 1.04,0.55 2.16,0.83 3.28,0.83 1.13,0 2.25,-0.28 3.29,-0.93 0.69,-0.46 17.71,-11.06 43.2,-30.02 2.94,-2.14 3.71,-6.5 1.64,-9.66 -2.07,-3.17 -6.05,-4 -8.98,-1.77 -18.75,13.85 -33.01,23.42 -39.15,27.42 -30.32,-19.89 -261.36,-176.49 -261.36,-343.15 0,-81.79 61.86,-148.43 137.98,-148.43 48.47,0 92.53,26.78 117.84,71.57 1.21,2.04 3.29,3.35 5.53,3.35 2.25,0 4.32,-1.31 5.53,-3.35 25.32,-44.8 69.38,-71.57 117.85,-71.57 76.03,0 137.98,66.55 137.98,148.43 0,121.67 -123.3,237.75 -196.83,296.21 -2.85,2.32 -3.46,6.69 -1.38,9.76 2.16,3.07 6.13,3.72 9.07,1.49 75.43,-59.95 202.09,-179.66 202.09,-307.36 0,-89.7 -67.74,-162.47 -150.94,-162.47l0.01 0z"></path> </g> </g> </svg> 