<?xml version="1.0" encoding="UTF-8"?> <svg xmlns="http://www.w3.org/2000/svg" xmlns:xlink="http://www.w3.org/1999/xlink" xmlns:xodm="http://www.corel.com/coreldraw/odm/2003" xml:space="preserve" width="6.161mm" height="6.161mm" version="1.1" style="shape-rendering:geometricPrecision; text-rendering:geometricPrecision; image-rendering:optimizeQuality; fill-rule:evenodd; clip-rule:evenodd" viewBox="0 0 616.1 616.1"> <defs> <style type="text/css"> .fil1 {fill:#FCDFB1;fill-rule:nonzero} .fil2 {fill:black;fill-rule:nonzero} .fil0 {fill:white;fill-rule:nonzero} </style> </defs> <g id="Слой_x0020_1"> <metadata id="CorelCorpID_0Corel-Layer"></metadata> <g id="_1785328413952"> <circle class="fil0" cx="379.96" cy="275.18" r="227.09"></circle> <circle class="fil1" cx="337.11" cy="275.18" r="227.09"></circle> <path class="fil2" d="M283.11 281.7c-2.32,2.5 -2.32,6.64 0,9.13 5.85,6.29 13.54,9.48 21.23,9.48 7.68,0 15.37,-3.1 21.22,-9.48 2.32,-2.5 2.32,-6.63 0,-9.13 -2.32,-2.5 -6.17,-2.5 -8.49,0 -7.04,7.58 -18.42,7.58 -25.47,0 -2.32,-2.58 -6.16,-2.58 -8.49,0l0 0z"></path> <path class="fil2" d="M329.79 241.36c6.81,0 12.33,-5.95 12.33,-13.27 0,-7.32 -5.52,-13.27 -12.33,-13.27 -6.81,0 -12.33,5.95 -12.33,13.27 0,7.32 5.52,13.27 12.33,13.27z"></path> <path class="fil2" d="M278.78 241.36c6.81,0 12.34,-5.95 12.34,-13.27 0,-7.32 -5.53,-13.27 -12.34,-13.27 -6.8,0 -12.33,5.95 -12.33,13.27 0,7.32 5.53,13.27 12.33,13.27z"></path> <path class="fil2" d="M111.15 321.71c-3.28,0 -6.01,2.93 -6.01,6.46 0,2.84 -2.16,5.25 -4.88,5.25 -2.73,0 -4.89,-2.32 -4.89,-5.25 0,-3.53 -2.72,-6.46 -6.01,-6.46 -3.28,0 -6,2.93 -6,6.46 0,9.99 7.53,18.18 16.9,18.18 9.37,0 16.9,-8.1 16.9,-18.18 0,-3.62 -2.73,-6.46 -6.01,-6.46l0 0z"></path> <path class="fil2" d="M195.41 384.13l0 -90.37c0,-3.54 -2.73,-6.47 -6.01,-6.47l-184.78 0c-3.28,0 -6,2.94 -6,6.47l0 8.01c0,26.62 11.61,50.4 29.63,65.82 0.24,0.26 0.48,0.52 0.8,0.69 11.78,9.83 26.11,16.12 41.81,17.41l0 186.19c0,3.54 2.73,6.46 6.01,6.46l214 0c13.54,0 24.51,-11.8 24.51,-26.36 0,-23.01 -8.25,-44.72 -23.15,-61.18l-96.82 -106.67zm63.19 88.15c-6,4.82 -13.21,7.41 -20.74,7.41 -19.46,0 -35.4,-17.07 -35.4,-38.09 0,-8.44 2.56,-16.46 7.36,-23.09l48.78 53.77zm-75.2 -172.06l0 86.5c0,13.7 -10.34,24.82 -23.07,24.82 -12.74,0 -23.07,-11.11 -23.07,-24.82l0 -86.5 46.14 0zm107.48 265.28l-72.56 0c1.45,-21.28 9.85,-41.09 24.19,-56.17 2.41,-2.5 2.41,-6.55 0.08,-9.13 -2.32,-2.59 -6.09,-2.59 -8.49,-0.09 -16.65,17.58 -26.35,40.58 -27.79,65.48l-63.03 0 0 -98.91c0,-3.53 -2.73,-6.46 -6.01,-6.46 -3.29,0 -6.01,2.93 -6.01,6.46l0 98.74 -16.34 0 0 -98.74c0,-3.53 -2.73,-6.46 -6.01,-6.46 -3.28,0 -6,2.93 -6,6.46l0 98.74 -20.03 0 0 -185.85c0,-3.53 -2.72,-6.46 -6,-6.46 -9.78,0 -19.07,-2.32 -27.4,-6.46 7.85,-3.87 12.5,-10.77 14.18,-15.42 1.2,-3.27 -0.32,-6.98 -3.36,-8.36 -3.05,-1.29 -6.57,0.26 -7.85,3.53 -0.48,1.21 -4.97,11.38 -18.1,10.08 -14.58,-13.09 -23.79,-32.73 -23.79,-54.71l0 -1.55 114.69 0 0 86.5c0,20.77 15.7,37.74 35.08,37.74 14.98,0 27.71,-10.16 32.68,-24.47l8.41 9.22c-7.05,9.13 -10.89,20.33 -10.89,32.39 0,28.09 21.22,51.01 47.41,51.01 10.74,0 20.83,-3.87 29.16,-11.03l16.57 18.36c12.74,14.04 19.71,32.57 19.71,52.12 -0.01,7.41 -5.61,13.44 -12.5,13.44l0 0z"></path> <path class="fil2" d="M409.73 356.84c-1.28,-0.09 -29.63,0 -49.5,0.08l0 -32.57c12.42,-17.06 22.35,-37.99 29.08,-57.81 11.05,-2.67 20.74,-16.45 23.54,-34.55 2.41,-15.59 -0.88,-30.07 -8.33,-37.82 3.69,-26.79 4.33,-65.39 -16.17,-88.31 -0.72,-0.95 -18.1,-22.49 -66.16,-24.39 -2.16,-0.43 -52.62,-9.13 -76.65,12.84 -5.04,1.21 -18.18,5.69 -28.75,21.28 -12.33,18.27 -16.74,45.06 -13.46,79.61 -6.88,8.01 -9.77,21.88 -7.53,36.79 2.81,18.09 12.5,31.88 23.55,34.55 6.73,19.82 16.66,40.75 29.08,57.81l0 32.65 -34.85 -0.17c-3.28,0 -6,2.85 -6,6.46 0,3.54 2.64,6.47 6,6.47l37.09 0.16 49.26 61.01c1.12,1.38 2.8,2.24 4.56,2.24 1.76,0 3.36,-0.78 4.56,-2.24l49.26 -61.01c20.51,-0.08 49.1,-0.16 50.86,-0.16 48.38,3.36 86.27,48.41 86.27,102.6l0 93.14 -166.44 0c-3.29,0 -6.01,2.94 -6.01,6.47 0,3.53 2.73,6.46 6.01,6.46l172.2 0c3.29,0 6.01,-2.93 6.01,-6.46l0 -99.69c0,-60.91 -42.85,-111.65 -97.47,-115.45l-0.01 0.01zm-183.49 -233.32c9.85,-14.91 22.26,-16.71 22.66,-16.8 1.28,-0.17 2.48,-0.78 3.45,-1.72 18.98,-19.22 67.28,-10.86 68.56,-10.69 42.93,1.73 58.06,19.73 58.46,20.17 17.7,19.81 16.42,55.57 12.82,79.95l-3.53 -14.65c-0.4,-1.81 -1.52,-3.27 -3.04,-4.14 -0.88,-0.51 -1.84,-0.69 -2.73,-0.69 -0.72,0 -1.44,0.17 -2.08,0.44 -76.49,31.01 -123.1,-35.5 -125.11,-38.35 -1.76,-2.58 -4.97,-3.36 -7.53,-1.98 -16.1,8.79 -26.91,34.12 -33.32,54.97 -2.8,-35.58 4.17,-55.57 11.38,-66.51l0.01 0zm-2.89 130.52c-5.6,0.26 -13.45,-9.39 -15.78,-24.21 -0.4,-2.67 -0.56,-5.25 -0.56,-7.67 0.08,0.44 0.08,0.78 0.16,1.12 0.56,3.02 3.36,5.35 5.93,5.17 2.88,0 5.36,-2.24 5.85,-5.25 2.88,-16.46 13.62,-59.46 30.59,-73.84 12.98,15.76 59.99,64.62 129.12,40.49l8.25 33.78c0.64,2.75 2.96,4.74 5.68,4.82l0.16 0c2.64,0 4.97,-1.81 5.77,-4.56 0.16,-0.61 1.2,-4.14 2.4,-9.57 0.8,4.4 1.04,9.65 0.08,15.43 -2.24,14.81 -10.09,24.38 -15.77,24.21 -2.73,-0.09 -5.05,1.64 -5.93,4.3 -6.81,21.2 -16.9,42.48 -29.16,58.94 -0.16,0.17 -0.32,0.43 -0.48,0.6 -13.21,17.58 -28.83,29.55 -45.33,29.55 -16.57,0 -32.2,-11.97 -45.41,-29.55 -0.16,-0.17 -0.24,-0.43 -0.4,-0.6 -12.18,-16.46 -22.35,-37.65 -29.08,-58.85 -0.96,-2.67 -3.36,-4.39 -6.09,-4.31l0 0zm80.98 162.76l-43.98 -54.37 0 -23.78c12.82,13.19 27.64,21.72 43.98,21.72 16.34,0 31.07,-8.62 43.97,-21.72l0 23.78 -43.97 54.37z"></path> </g> </g> </svg> 