<?xml version="1.0" encoding="UTF-8"?> <svg xmlns="http://www.w3.org/2000/svg" xmlns:xlink="http://www.w3.org/1999/xlink" xmlns:xodm="http://www.corel.com/coreldraw/odm/2003" xml:space="preserve" width="6.161mm" height="6.161mm" version="1.1" style="shape-rendering:geometricPrecision; text-rendering:geometricPrecision; image-rendering:optimizeQuality; fill-rule:evenodd; clip-rule:evenodd" viewBox="0 0 616.1 616.1"> <defs> <style type="text/css"> .fil0 {fill:#FCDFB1;fill-rule:nonzero} .fil1 {fill:#2C2C2C;fill-rule:nonzero} </style> </defs> <g id="Слой_x0020_1"> <metadata id="CorelCorpID_0Corel-Layer"></metadata> <g id="_1748466748240"> <circle class="fil0" cx="382.71" cy="313.65" r="201.58"></circle> <path class="fil1" d="M451.21 423.2c-4.03,-2.35 -6.46,-6.21 -6.21,-10.07 0.17,-3.44 -0.08,-6.87 -0.92,-10.23 -3.1,-14 -14.67,-25.23 -28.59,-27.91 -11.07,-2.19 -22.3,0.67 -30.85,7.71 -8.56,7.04 -13.5,17.43 -13.5,28.5l0 1.68c0.17,4.19 -2.18,8.04 -6.2,10.39 -13.08,7.46 -20.29,22.05 -18.36,37.06 2.09,16.18 15.43,29.51 31.6,31.69 1.68,0.25 3.36,0.34 5.03,0.34 6.88,0 13.42,-1.85 19.29,-5.45 3.27,-2.01 7.71,-2.01 10.98,0 7.29,4.53 15.76,6.29 24.31,5.2 16.18,-2.18 29.51,-15.43 31.61,-31.69 2.09,-15.26 -5.12,-29.76 -18.2,-37.22l0.01 0zm5.86 35.38c-1.42,10.64 -10.14,19.45 -20.79,20.79 -5.7,0.75 -11.24,-0.42 -16.1,-3.36 -7.37,-4.53 -16.85,-4.53 -24.22,0 -4.78,2.94 -10.4,4.11 -16.1,3.36 -10.65,-1.43 -19.45,-10.15 -20.79,-20.79 -1.35,-9.98 3.44,-19.54 12.07,-24.49 8.13,-4.61 13,-12.99 12.58,-21.88l0 -1.09c0,-7.29 3.27,-14.17 8.88,-18.86 4.45,-3.69 9.81,-5.54 15.43,-5.54 1.68,0 3.35,0.17 5.03,0.51 9.14,1.76 16.68,9.14 18.78,18.36 0.5,2.26 0.67,4.52 0.59,6.79 -0.5,8.72 4.36,17.01 12.57,21.71 8.64,4.95 13.33,14.51 12.07,24.49l0 0z"></path> <path class="fil1" d="M380.89 373.1c1.67,0.42 3.35,0.67 5.03,0.67 3.35,0 6.62,-0.84 9.55,-2.6 9.14,-5.27 12.33,-17.01 7.05,-26.15 -2.52,-4.44 -6.71,-7.63 -11.65,-8.97 -4.95,-1.35 -10.15,-0.68 -14.51,1.93 -9.14,5.28 -12.32,17.01 -7.04,26.15 2.43,4.44 6.62,7.63 11.57,8.97l0 0zm1.67 -24.23c1.01,-0.58 2.18,-0.92 3.27,-0.92 0.59,0 1.18,0.09 1.76,0.25 1.68,0.42 3.11,1.51 4.03,3.11 0.84,1.5 1.09,3.26 0.67,5.02 -0.42,1.68 -1.51,3.11 -3.1,4.03 -1.51,0.84 -3.27,1.09 -5.03,0.67 -1.68,-0.42 -3.11,-1.51 -4.03,-3.1 -1.84,-3.19 -0.75,-7.3 2.43,-9.06l0 0z"></path> <path class="fil1" d="M357.49 406.27c4.94,-1.35 9.05,-4.53 11.65,-8.89 2.59,-4.44 3.27,-9.55 1.93,-14.5 -1.34,-4.95 -4.53,-9.06 -8.97,-11.66 -4.44,-2.59 -9.65,-3.27 -14.51,-1.93 -4.95,1.35 -9.05,4.53 -11.65,8.97 -5.28,9.14 -2.1,20.88 7.04,26.16 2.94,1.68 6.21,2.6 9.56,2.6 1.67,-0.08 3.35,-0.34 4.94,-0.75l0.01 0zm-8.22 -12.83c-1.51,-0.84 -2.6,-2.26 -3.1,-4.03 -0.42,-1.67 -0.25,-3.44 0.67,-5.03 0.92,-1.51 2.26,-2.59 4.03,-3.1 0.58,-0.17 1.17,-0.25 1.67,-0.25 1.17,0 2.26,0.33 3.27,0.92 1.51,0.84 2.6,2.26 3.1,4.03 0.42,1.67 0.26,3.44 -0.67,5.03 -0.92,1.51 -2.26,2.6 -4.03,3.1 -1.67,0.5 -3.43,0.25 -4.94,-0.67l0 0z"></path> <path class="fil1" d="M468.48 369.3c-4.95,-1.35 -10.06,-0.68 -14.51,1.93 -9.14,5.28 -12.32,17.02 -7.04,26.16 2.52,4.44 6.71,7.63 11.65,8.88 1.68,0.42 3.36,0.67 5.03,0.67 3.36,0 6.62,-0.84 9.56,-2.6 9.14,-5.27 12.32,-17.01 7.04,-26.15 -2.59,-4.45 -6.78,-7.63 -11.73,-8.89l0 0zm1.43 20.2c-0.42,1.68 -1.51,3.1 -3.11,4.03 -1.51,0.84 -3.27,1.09 -5.02,0.67 -1.68,-0.42 -3.11,-1.51 -4.03,-3.1 -1.85,-3.19 -0.75,-7.21 2.43,-8.97 1.01,-0.59 2.1,-0.92 3.27,-0.92 0.59,0 1.17,0.08 1.67,0.25 1.68,0.42 3.11,1.5 4.03,3.1 1.01,1.42 1.18,3.18 0.76,4.94l0 0z"></path> <path class="fil1" d="M420.71 371.15c2.93,1.67 6.2,2.6 9.55,2.6 1.68,0 3.35,-0.25 5.03,-0.67 4.95,-1.34 9.06,-4.53 11.65,-8.89 2.6,-4.44 3.27,-9.56 1.93,-14.5 -1.34,-4.95 -4.52,-9.06 -8.97,-11.66 -4.44,-2.6 -9.55,-3.26 -14.5,-1.93 -4.95,1.35 -9.06,4.53 -11.66,8.97 -5.28,9.06 -2.17,20.8 6.96,26.08l0.01 0zm3.85 -19.95c0.92,-1.51 2.26,-2.6 4.03,-3.11 0.58,-0.16 1.17,-0.25 1.76,-0.25 1.17,0 2.26,0.34 3.26,0.92 1.51,0.84 2.6,2.27 3.11,4.03 0.42,1.67 0.25,3.44 -0.67,5.03 -0.93,1.51 -2.27,2.6 -4.03,3.1 -1.67,0.42 -3.44,0.26 -5.03,-0.67 -1.59,-0.92 -2.6,-2.26 -3.1,-4.03 -0.42,-1.67 -0.17,-3.43 0.67,-5.02l0 0z"></path> <path class="fil1" d="M85.59 233.89c0,4.53 3.69,8.13 8.14,8.13 4.44,0 8.13,-3.69 8.13,-8.13 0,-4.44 -3.69,-8.13 -8.13,-8.13 -4.45,0 -8.14,3.6 -8.14,8.13z"></path> <path class="fil1" d="M213.46 148.64l38.56 0 -11.82 94.65c-1.26,9.89 1.85,19.78 8.39,27.24 6.53,7.46 16.01,11.74 25.99,11.74 9.89,0 19.37,-4.28 25.99,-11.74 6.54,-7.46 9.64,-17.35 8.38,-27.24l-11.82 -94.65 38.57 0c14,0 25.32,-11.32 25.32,-25.32l0 -65.82c0,-3.44 -2.86,-6.29 -6.29,-6.29 -3.44,0 -6.29,2.86 -6.29,6.29l0 48.71 -14.17 0 0 -48.71c0,-3.44 -2.85,-6.29 -6.28,-6.29 -3.45,0 -6.29,2.86 -6.29,6.29l0 48.71 -14.17 0 0 -48.71c0,-3.44 -2.86,-6.29 -6.29,-6.29 -3.44,0 -6.29,2.86 -6.29,6.29l0 48.71 -14.09 0 0 -48.71c0,-3.44 -2.85,-6.29 -6.28,-6.29 -3.44,0 -6.29,2.85 -6.29,6.29l0 48.71 -14.17 0 0 -48.71c0,-3.44 -2.85,-6.29 -6.29,-6.29 -3.44,0 -6.29,2.86 -6.29,6.29l0 48.71 -14.17 0 0 -48.71c0,-3.44 -2.85,-6.29 -6.28,-6.29 -3.44,0 -6.29,2.86 -6.29,6.29l0 48.71 -14.17 0 0 -48.71c0,-3.44 -2.85,-6.29 -6.29,-6.29 -3.44,0 -6.29,2.86 -6.29,6.29l0 65.82c0.09,13.99 11.4,25.32 25.41,25.32l0 0zm83 96.24c0.75,6.29 -1.18,12.58 -5.37,17.35 -8.38,9.47 -24.73,9.47 -33.11,0 -4.2,-4.78 -6.13,-11.06 -5.37,-17.35l12.07 -96.25 19.71 0 12.07 96.25zm51.98 -121.57c0,7.05 -5.7,12.75 -12.74,12.75l-122.24 -0.01c-7.05,0 -12.75,-5.7 -12.75,-12.74l0.01 -4.44 147.72 0 0 4.44z"></path> <path class="fil1" d="M530.96 513.77l-21.38 0 0 -172.71c0,-28.08 -20.88,-51.31 -47.95,-55.16l0 -17.61c0,-12.57 -10.23,-22.8 -22.81,-22.8l-9.56 0 0 -41.17 19.12 0c1.09,0 1.93,0.84 1.93,1.93l0 17.1c0,3.44 2.85,6.29 6.28,6.29l29.85 0c3.44,0 6.29,-2.85 6.29,-6.29l0 -22.13c0,-21.63 -17.6,-39.32 -39.32,-39.32l-80.48 0c-3.44,0 -6.29,2.85 -6.29,6.29l0 29.85c0,3.44 2.85,6.28 6.29,6.28l13.92 0 0 41.17 -9.57 0c-12.57,0 -22.8,10.23 -22.8,22.8l0 17.61c-17.69,2.51 -32.78,13.33 -41,28.33 -123.41,1.51 -137.75,-58.77 -138.33,-61.45 -9.31,-43.1 -28.76,-51.57 -33.12,-52.99 -36.55,-16.09 -70.43,12.08 -78.98,19.96l-35.38 0c-1.67,0 -3.26,0.67 -4.44,1.84 -1.17,1.18 -1.84,2.77 -1.84,4.44l0 9.39c0,29.01 23.39,52.66 52.31,52.99 52.74,11.32 62.8,66.07 63.13,67.66 1.85,40.66 27.51,72.69 38.49,84.6 1,40.07 -4.2,71.26 -14.43,86.27 -7.96,3.1 -36.3,16.01 -33.86,42.67 0.33,3.27 3.02,5.7 6.28,5.7l31.53 0c1.59,0 3.1,-0.58 4.27,-1.67 1.18,-1.09 25.57,-23.81 41.17,-62.55 1.76,11.24 1.84,20.29 1.67,25.32 -18.69,6.12 -20.54,31.03 -20.62,32.2 -0.09,1.76 0.5,3.44 1.68,4.69 1.17,1.26 2.85,2.01 4.61,2.01l37.39 0c2.43,0 4.69,-1.42 5.7,-3.69 12.24,-26.49 14.42,-102.2 14.84,-124.59 10.57,-0.5 24.4,-2.43 41.34,-5.79 3.44,-0.67 5.61,-3.93 4.95,-7.37 -0.68,-3.44 -3.86,-5.62 -7.38,-4.95 -16.18,3.18 -29.01,4.95 -38.82,5.45l0 -16.6c0,-3.44 -2.85,-6.29 -6.29,-6.29 -3.44,0 -6.28,2.85 -6.28,6.29l0 23.05c0,0.93 -0.67,89.88 -12.24,121.83l-25.66 0c1.68,-6.04 5.36,-14 13.58,-14.92 2.86,-0.34 5.2,-2.6 5.54,-5.54 0.25,-2.35 6.46,-58.85 -34.96,-105.39 -0.34,-0.34 -37.73,-35.8 -39.91,-82.25 -0.09,-0.67 -11.9,-65.98 -73.61,-78.81 -0.42,-0.08 -0.84,-0.16 -1.26,-0.16 -22.3,0 -40.41,-18.11 -40.41,-40.41l0 -3.11 31.61 0c1.67,0 3.35,-0.67 4.52,-1.93 0.34,-0.34 33.79,-33.95 67.16,-18.95 0.25,0.09 0.67,0.25 0.92,0.34 0.17,0 10.98,3.69 19.37,25.49 1.18,5.28 1.35,11.14 0.34,17.01 -1.43,8.3 -4.95,15.93 -9.73,20.96 -2.43,2.6 -7.37,6.71 -13.16,5.79 -9.73,-1.6 -15.59,-16.6 -12.91,-32.78 1.17,-7.13 3.94,-13.75 7.71,-18.7 2.1,-2.77 1.6,-6.71 -1.17,-8.8 -2.77,-2.1 -6.71,-1.6 -8.81,1.17 -5.11,6.62 -8.63,15.09 -10.14,24.31 -3.94,23.64 6.2,44.36 23.23,47.2 1.25,0.25 2.59,0.34 3.85,0.34 7.29,0 14.42,-3.44 20.54,-9.89 4.28,-4.53 7.55,-10.32 9.9,-16.69 10.31,20.37 43,59.53 141.19,59.61 -1.18,4.53 -1.93,9.31 -1.93,14.17l0 195.01c0,21.63 17.6,39.32 39.32,39.32l97.33 0c3.44,0 6.29,-2.85 6.29,-6.28 0,-3.44 -2.85,-6.29 -6.29,-6.29l-20.45 0c-5.62,0 -10.23,-4.62 -10.23,-10.23l0 -16.02c0,-5.61 4.61,-10.23 10.23,-10.23l108.23 0c5.62,0 10.23,4.62 10.23,10.23l0 16.02c0,5.61 -4.61,10.23 -10.23,10.23l-67.4 0c-3.44,0 -6.29,2.85 -6.29,6.29 0,3.43 2.85,6.28 6.29,6.28l67.4 0c12.58,0 22.81,-10.23 22.81,-22.8l0 -16.02c-0.1,-12.22 -10.33,-22.45 -22.9,-22.45l-0.01 0zm-368.72 49.05l-22.47 0c3.27,-16.52 26.75,-24.48 27,-24.56 1.17,-0.42 2.26,-1.18 3.01,-2.18 14.18,-18.7 17.78,-53.66 18.11,-80.41 7.8,10.9 13.17,22.22 16.69,32.95 -11.15,40.5 -35.64,67.41 -42.34,74.2zm216.98 -388.26l74.19 0c14.76,0 26.75,11.99 26.75,26.75l0 15.84 -17.27 0 0 -10.81c0,-8.05 -6.54,-14.51 -14.51,-14.51l-69.17 0 0.01 -17.27zm20.2 29.77l17.28 0 0 41.16 -17.28 0 0 -41.16zm-32.36 63.97c0,-5.62 4.61,-10.23 10.23,-10.23l61.62 0c5.62,0 10.23,4.61 10.23,10.23l0 17.02 -81.99 0 0 -17.02 -0.09 0zm32.87 268.29l0 16.01c0,3.69 0.92,7.13 2.51,10.23l-56.59 0c-14.76,0 -26.74,-11.99 -26.74,-26.74l0 -195.01c0,-23.82 19.36,-43.18 43.26,-43.18l91.47 0c23.81,0 43.25,19.37 43.25,43.18l0 172.79 -74.27 0c-12.67,-0.09 -22.89,10.14 -22.89,22.72z"></path> </g> </g> </svg> 