<?xml version="1.0" encoding="UTF-8"?> <svg xmlns="http://www.w3.org/2000/svg" xmlns:xlink="http://www.w3.org/1999/xlink" xmlns:xodm="http://www.corel.com/coreldraw/odm/2003" xml:space="preserve" width="67.795mm" height="27.691mm" version="1.1" style="shape-rendering:geometricPrecision; text-rendering:geometricPrecision; image-rendering:optimizeQuality; fill-rule:evenodd; clip-rule:evenodd" viewBox="0 0 6779.5 2769.1"> <defs> <style type="text/css"> .fil3 {fill:#FEFEFB} .fil5 {fill:#F9CABD} .fil4 {fill:#E50C7D} .fil6 {fill:#EFACAC} .fil2 {fill:#F2D4A7} .fil1 {fill:#3B231A} .fil0 {fill:#3B231A;fill-rule:nonzero} </style> </defs> <g id="Слой_x0020_1"> <metadata id="CorelCorpID_0Corel-Layer"></metadata> <path class="fil0" d="M2927.3 853.34c-77.19,0 -146.72,-16.16 -208.62,-48.5 -61.88,-32.34 -110.39,-77.53 -145.5,-135.6 -35.12,-58.06 -52.68,-123.95 -52.68,-197.66 0,-73.71 17.56,-139.6 52.68,-197.66 35.11,-58.06 83.62,-103.26 145.5,-135.6 61.9,-32.33 131.43,-48.5 208.62,-48.5 70.92,0 134.21,12.52 189.83,37.55 55.63,25.03 101.53,61.19 137.69,108.48l-155.42 138.73c-45.2,-57.02 -98.4,-85.53 -159.59,-85.53 -51.46,0 -92.83,16.51 -124.12,49.55 -31.29,33.02 -46.94,77.35 -46.94,132.98 0,55.63 15.65,99.96 46.94,133 31.29,33.03 72.66,49.54 124.12,49.54 61.19,0 114.39,-28.51 159.59,-85.53l155.42 138.73c-36.16,47.28 -82.06,83.44 -137.69,108.48 -55.62,25.02 -118.91,37.54 -189.83,37.54zm1118.16 -746.83l0 730.15 -246.16 0 0 -269.11 -227.39 0 0 269.11 -246.17 0 0 -730.15 246.17 0 0 258.68 227.39 0 0 -258.68 246.16 0zm118.9 0l246.17 0 0 730.15 -246.17 0 0 -730.15zm742.67 746.83c-77.18,0 -146.72,-16.16 -208.62,-48.5 -61.88,-32.34 -110.39,-77.53 -145.5,-135.6 -35.12,-58.06 -52.68,-123.95 -52.68,-197.66 0,-73.71 17.56,-139.6 52.68,-197.66 35.11,-58.06 83.62,-103.26 145.5,-135.6 61.9,-32.33 131.44,-48.5 208.62,-48.5 70.93,0 134.21,12.52 189.83,37.55 55.63,25.03 101.53,61.19 137.69,108.48l-155.42 138.73c-45.2,-57.02 -98.39,-85.53 -159.58,-85.53 -51.46,0 -92.84,16.51 -124.13,49.55 -31.29,33.02 -46.93,77.35 -46.93,132.98 0,55.63 15.64,99.96 46.93,133 31.29,33.03 72.67,49.54 124.13,49.54 61.19,0 114.38,-28.51 159.58,-85.53l155.42 138.73c-36.16,47.28 -82.06,83.44 -137.69,108.48 -55.62,25.02 -118.9,37.54 -189.83,37.54zm885.56 -143.94l-277.46 0 -49.03 127.26 -250.32 0 319.17 -730.15 241.99 0 319.18 730.15 -254.51 0 -49.02 -127.26zm-67.8 -177.32l-70.93 -183.58 -70.92 183.58 141.85 0zm-2692.15 1097.91l213.84 0 0 308.74c-43.11,29.9 -93.19,52.84 -150.21,68.84 -57.02,16 -113,23.99 -167.93,23.99 -77.88,0 -147.76,-16.17 -209.66,-48.5 -61.88,-32.34 -110.39,-77.54 -145.5,-135.6 -35.12,-58.06 -52.68,-123.95 -52.68,-197.66 0,-73.71 17.56,-139.6 52.68,-197.66 35.11,-58.06 84.14,-103.26 147.07,-135.6 62.93,-32.34 134.03,-48.5 213.3,-48.5 71.63,0 135.78,12 192.45,35.99 56.67,23.98 103.78,58.93 141.33,104.82l-157.5 138.73c-45.89,-53.54 -100.48,-80.32 -163.76,-80.32 -54.24,0 -97.36,16.34 -129.34,49.03 -31.98,32.68 -47.98,77.18 -47.98,133.51 0,54.93 15.82,99.09 47.46,132.46 31.64,33.39 73.88,50.08 126.73,50.08 31.29,0 61.19,-5.91 89.7,-17.73l0 -184.62zm632.1 201.3l-66.75 0 0 183.58 -246.17 0 0 -730.14 351.52 0c67.45,0 126.21,11.12 176.28,33.38 50.06,22.25 88.66,54.23 115.78,95.95 27.12,41.73 40.68,90.41 40.68,146.04 0,52.15 -11.83,97.7 -35.47,136.63 -23.64,38.95 -57.72,69.89 -102.22,92.84l153.33 225.3 -262.85 0 -124.13 -183.58zm123.08 -271.19c0,-27.12 -8.33,-48.16 -25.03,-63.11 -16.69,-14.95 -41.72,-22.42 -75.1,-22.42l-89.7 0 0 171.06 89.7 0c33.38,0 58.41,-7.48 75.1,-22.43 16.7,-14.95 25.03,-35.98 25.03,-63.1zm723.89 471.46c-78.57,0 -149.15,-16.34 -211.74,-49.02 -62.58,-32.69 -111.61,-78.06 -147.07,-136.12 -35.47,-58.07 -53.2,-123.61 -53.2,-196.62 0,-73.01 17.73,-138.56 53.2,-196.62 35.46,-58.06 84.49,-103.43 147.07,-136.12 62.59,-32.68 133.17,-49.02 211.74,-49.02 78.58,0 149.16,16.34 211.74,49.02 62.59,32.69 111.61,78.06 147.08,136.12 35.46,58.06 53.2,123.61 53.2,196.62 0,73.01 -17.74,138.55 -53.2,196.62 -35.47,58.06 -84.49,103.43 -147.08,136.12 -62.58,32.68 -133.16,49.02 -211.74,49.02zm0 -199.22c30.6,0 58.24,-7.47 82.92,-22.43 24.69,-14.95 44.33,-36.16 58.93,-63.63 14.61,-27.46 21.91,-59.62 21.91,-96.48 0,-36.86 -7.3,-69.02 -21.91,-96.49 -14.6,-27.46 -34.24,-48.67 -58.93,-63.62 -24.68,-14.95 -52.32,-22.43 -82.92,-22.43 -30.6,0 -58.24,7.48 -82.93,22.43 -24.68,14.95 -44.33,36.16 -58.93,63.62 -14.6,27.47 -21.9,59.63 -21.9,96.49 0,36.86 7.3,69.02 21.9,96.48 14.6,27.47 34.25,48.68 58.93,63.63 24.69,14.96 52.33,22.43 82.93,22.43zm884.52 199.22c-78.57,0 -149.15,-16.34 -211.74,-49.02 -62.58,-32.69 -111.61,-78.06 -147.07,-136.12 -35.47,-58.07 -53.2,-123.61 -53.2,-196.62 0,-73.01 17.73,-138.56 53.2,-196.62 35.46,-58.06 84.49,-103.43 147.07,-136.12 62.59,-32.68 133.17,-49.02 211.74,-49.02 78.58,0 149.16,16.34 211.74,49.02 62.59,32.69 111.61,78.06 147.08,136.12 35.46,58.06 53.2,123.61 53.2,196.62 0,73.01 -17.74,138.55 -53.2,196.62 -35.47,58.06 -84.49,103.43 -147.08,136.12 -62.58,32.68 -133.16,49.02 -211.74,49.02zm0 -199.22c30.6,0 58.25,-7.47 82.92,-22.43 24.69,-14.95 44.33,-36.16 58.94,-63.63 14.6,-27.46 21.9,-59.62 21.9,-96.48 0,-36.86 -7.3,-69.02 -21.9,-96.49 -14.61,-27.46 -34.25,-48.67 -58.94,-63.62 -24.67,-14.95 -52.32,-22.43 -82.92,-22.43 -30.6,0 -58.24,7.48 -82.93,22.43 -24.67,14.95 -44.32,36.16 -58.93,63.62 -14.6,27.47 -21.9,59.63 -21.9,96.49 0,36.86 7.3,69.02 21.9,96.48 14.61,27.47 34.26,48.68 58.93,63.63 24.69,14.96 52.33,22.43 82.93,22.43zm1153.63 182.53l-2.08 -332.74 -158.55 267.03 -108.48 0 -158.54 -255.55 0 321.26 -224.26 0 0 -730.14 202.36 0 237.81 389.06 231.56 -389.06 202.36 0 2.08 730.14 -224.26 0z"></path> <g id="_2130232967776"> <path class="fil1" d="M1727.37 2372.15c1.04,24.35 -27.5,90.86 -37.22,115.33 -12.33,31.03 33.43,82.55 -18.89,108.44 -36.43,18.02 -90.92,11.92 -124.71,-5.91 -15.57,-8.22 -34.76,-20.05 -32.02,-44.83 4.04,-36.4 16.7,-12.85 -10.16,-49.96 -40.89,-56.49 -59.7,-88.11 -63.29,-167.79 -0.85,-18.76 8.23,-18.32 35.3,-38.28 44.17,-32.57 85.25,-68.24 125.62,-104.59 9.99,-9 32.12,-31.6 40.04,-36.69l69.15 -82.8c14.36,48.43 26.99,87.03 32.72,143.67 3.28,32.42 1.55,143.87 -16.54,163.41zm-744.89 -419.39c-25.56,-43.69 -30.1,-156.62 -9.99,-198.58 1.97,-4.13 2.87,-4.84 3.56,-5.65 16.85,25.1 41.32,54.16 70.27,63.76 -1.74,59.81 -33.31,112.6 -63.84,140.47zm188.96 -159.14c23.45,-19.94 32.78,-21.99 36.3,-65.52 42.78,5.49 85.64,104.42 88.03,124.83 -54.12,-0.92 -108.73,-19.6 -124.33,-59.31zm-121.3 -152.26c72.78,-24.06 151.3,98.64 64.71,121.52 -79.52,21 -139.91,-96.67 -64.71,-121.52zm-500.39 102.47c37.59,3.03 67.79,11.28 106.46,4.91 86.64,-14.26 207.91,-52.44 279.23,-59.42 -6.72,20.6 -16.25,40.01 -20.88,62.95 -3.09,15.36 -8.08,56.33 -13.45,67.31 -13.62,27.83 -91.44,34.92 -130.44,33.55 -99.11,-3.51 -206.77,-14.59 -220.92,-109.3zm590.88 -137.89c10.83,-27.33 80.72,-98.3 99.96,-118.7 34.5,-36.59 72.31,-68.83 111.72,-105.9 17.81,-16.76 40.04,-31.55 61.26,-47.71l84.2 -80.61c7.82,-9.89 16.44,-19.43 24,-28.92l45.22 -63.16c9.65,14.82 8.48,27.99 22.6,45.41 16.48,20.35 12.96,18.38 7.63,49.92 -6.29,37.21 -15.14,68.76 -28.41,101.98 -21.19,53.02 -41.81,82.87 -74.77,124.24 -44.64,56.01 -71.84,69.3 -98.87,100.25 -51.9,59.41 -91.12,94.38 -177.85,77.08 -38.97,-7.77 -38.34,-35.88 -76.69,-53.88zm-211.73 1053.4c-40.08,-39.6 -149.99,-289.03 -173.7,-354.26 -32.74,-90.07 -109.67,-322.31 -123.28,-411.36 65.52,6.1 142.97,25.36 214.63,11.37 23.88,-4.67 40.68,-14.33 59.84,-18.68 6.57,37.07 9.84,54.28 23.33,85.5 11.29,26.15 27.77,54.32 49.44,62.87 9.62,-5.38 9.87,-8.52 18.58,-13.26 51.8,-59.07 90.81,-99.94 103.25,-182.7l5.69 -17.12c30.58,-3.5 9.25,35.25 102.13,73.35 39.38,16.16 116.69,18.39 161.24,7.86 -0.51,-53.19 -56.05,-149.82 -79.12,-182.55 2.3,-1.82 0.51,-1.07 5.82,-3.06 41.66,-15.65 44.68,-4.56 99.52,-52.53 8.53,-7.46 12.22,-12.55 19.83,-20.73 8.29,-8.9 11.86,-14.99 18.49,-21.98 3.19,-3.37 6.19,-5.7 9.44,-9.08 43.89,-45.66 47.22,-35.39 109.85,-114.11 24.73,-31.09 42.63,-64.16 61.08,-103.84 37.98,-81.69 36.93,-171.91 69.83,-253.53 15.84,-39.3 32.69,-75.06 53,-108.81 10.52,-17.49 22.06,-29.97 27.48,-53.26 5.47,-23.56 5.5,-49.53 19.44,-64.91 21.67,4.19 25.24,17.78 40.6,19.39 12.1,1.27 29.84,-9.04 49.79,-10.11 10.23,40.92 1.88,29.54 46.96,30.97 4.99,44.48 1.07,88.95 0.42,134.21 -2.16,152.06 23.14,227.68 -17.28,391 -48.97,197.85 -153.26,294 -166.34,321.96 -8.37,17.89 -12.4,160.01 -94.16,257.43 -69.81,83.16 -204.49,210.6 -312.86,246.98 -74.57,25.03 -151.25,36.36 -225.73,57.06 8.74,67.27 69.34,159.05 53.11,280.61 -43.97,9.15 -77.44,35.31 -123.49,50.48 -42.81,14.1 -114,22.83 -153.11,0.17l10.11 -6.55c1.38,-0.55 10.36,-2.69 12.45,-3.06 8.94,-1.62 19.31,-2.83 28.52,-3.73l-4.8 -21.99zm489.69 -1831.7c11.94,15.67 19.93,24.54 36.22,25.74 21.55,1.59 41.91,-7.94 52.11,9.63 21.55,37.12 -12.42,61.95 38.78,81.7 -2.39,21.5 -12.81,32.14 -8.55,56.06 4.06,22.81 16.22,21.35 11.94,47.96 -13.62,84.69 -96.74,180.47 -155.66,227.51 -80.92,64.61 -117.53,93.5 -186.97,164.55 -6.16,6.3 -10.01,8.81 -15.6,15.31l-88.6 104.26c-16.55,21.19 -7.72,18.56 -41.43,21.33 -51.89,4.26 -69.01,31.28 -86.9,40.18 -21.29,10.58 -172.38,39.07 -208.38,46.76 -78.4,16.76 -139.2,33.75 -223.19,15.85 -104.6,-22.29 -129.81,-61.37 -193.2,-62.63 7.83,-40.99 -10.89,-53.96 -43.3,-58.41 -53.21,-7.32 -19.15,-20.06 -14.5,-58.14l-24.64 -177.4c-4.05,-67.29 -10.32,-133.18 -10.43,-201.6 -0.12,-70.7 0.86,-141.5 0.92,-212.22 -33.66,-19.13 -42.1,-15.82 -63.7,-44.07 -49.03,-64.12 -74.65,-136.67 -101.55,-215.67 -13.46,-39.5 -45.67,-132.02 -34.81,-176.24 8.42,-34.29 35.61,-33.92 70.35,-30.73 85.12,7.84 170.79,36.87 243.79,76.85 86.57,47.42 68.49,29.63 133.64,-18.32 39.2,-28.85 88.82,-52.39 146.21,-68.39 27.77,-7.74 58.53,-14.08 88.39,-17.4 124.01,-13.8 103.4,0.23 140.66,-73.77 33.26,-66.07 77.49,-139.48 115.53,-201.9 24.35,-39.94 69.76,-110.82 115.51,-70.87 65.1,56.87 82.35,248.32 90.48,335.9 11.31,122.01 -1.13,58.97 68.68,142.64 38.25,45.85 55.25,70.69 87.96,123.5 23.66,38.22 48.57,102.22 60.24,152.03zm-610.5 -469.57c-114.08,0 -215.8,24.67 -304.24,78.32 -26.71,16.21 -49.64,38.3 -75.21,55.42 -67.08,-58.3 -303.36,-125.62 -373.28,-96.46 -44.84,18.7 -54.68,59.18 -60.06,105.03 -2.79,23.84 3.77,43.39 10.74,65.69 36.02,115.18 49.68,187.45 114.83,295.72 14.28,23.74 31.38,49.65 51.41,69.89 9.95,10.04 14.49,11.14 26.2,17.34 0,97.32 0.22,192.86 3.01,286.25 0.46,15.36 2.87,15.54 3.32,30.89 1.58,54.11 8.36,110.15 15.96,164.43 5,35.7 14.58,56.17 3.26,91.38 -3.88,12.05 -3.77,26.17 -3.77,39.77 0,36.69 29.01,48.97 59.09,55.98 0,16.46 -5,19.2 0.93,33.07 15.7,36.75 63.21,19.48 93.32,31.31 37.21,14.62 74.22,44.01 117.25,47.59 0,61.43 28.27,99.21 65.92,130.02 17.59,14.4 23.04,70.47 28.61,92.69l52.77 183.62c18.1,60.73 36.05,120.51 59.72,179.77 48.74,121.98 88.33,207.41 150.66,325.21 -10.61,15.84 -20.75,16.16 -27.59,37.94 -5.98,19.02 1.52,37.27 11.91,49.26 29.68,34.23 90.94,37.2 133.87,37.2 47.43,0 96.09,-16.5 129.61,-32.12 17.73,-8.26 37.6,-20.78 54.22,-26.64 20.52,-7.25 41.87,-8.61 56.29,-27.69 33.28,-44 2.33,-179.68 -15.04,-238.15 -3.76,-12.66 -7.64,-20.88 -10.47,-33.07 6.78,-3.26 139.81,-35.63 179.07,-51.09 10.14,-3.99 14.07,-7 26.2,-8.01 3.28,39.42 13.56,79.1 27.04,109.82 10.32,23.55 26.07,42.15 40.82,62.03 9.69,13.08 3.68,21.2 3.68,36.54 0,109.58 227.9,142.74 281.03,50.87 30.18,-52.17 5.11,-81.42 5.11,-103.75 0,-9.73 55.98,-138.53 55.98,-230.16 0,-61.7 -3.48,-110.68 -18.63,-167.97 -34.14,-129.04 -44.07,-62.63 -20,-147.47l25.42 -98.99c12.13,-61.39 29.09,-60.25 66.71,-116.79 4.6,-6.91 8.1,-11.65 12.46,-18.65l22.17 -40.04c33.85,-63.36 59.71,-129.89 76.11,-200.7 8,-34.54 12.48,-65.2 18.03,-103.26 4.58,-31.4 4.35,-97.84 4.35,-132.51 0,-68.25 -16.66,-156.83 -4.42,-237.69 2.99,-19.75 1.37,-42.6 -1.25,-58.33 -10.04,-60.25 -40.3,-38.42 -61.08,-63.33 -37.37,-44.84 -58.53,-10.28 -90.43,-18.21 -21.13,-5.25 -26.8,-14.33 -57.43,-14.33 -43.8,0 -54.84,67.75 -61.32,100.42 -3.5,17.65 -44.1,85.54 -55.83,109.01 -6.67,13.32 -11.37,22.01 -17.04,35.84 -2.75,6.7 -5.9,12.87 -8.37,19.62 -4.44,12.13 -0.98,11.66 -9.84,18.15 0,-11.24 -2.21,-26.31 -3.63,-39.92 -2.83,-27.07 -4.14,-71.17 -14.21,-94.64 -4.26,-9.92 -7.04,-6.15 -7.04,-14.73 0,-17.26 25.58,-52.55 -6.92,-83.28 -1.99,-1.88 -10.08,-7.88 -10.42,-8.25 -18.87,-21.13 8.95,-104.42 -110.18,-104.42 -6.74,-80.92 -103.81,-223.27 -156.32,-282.23 -71.2,-79.96 -39.74,-31.07 -56.08,-161.64 -10.66,-85.09 -28.73,-220.82 -77.68,-289.33 -56.63,-79.26 -139.01,-71.54 -195.18,2.23 -44.98,59.06 -80.76,127.81 -119.12,191.91l-55 103.62z"></path> <path class="fil2" d="M595.43 894.35c63.77,-12.35 135.26,78.44 57.15,85.9 -65.79,6.28 -137.06,-70.43 -57.15,-85.9zm334.46 -111.05c63.88,-16.32 29.13,100.9 -29.45,112.08 -42.1,8.04 -42.05,-34.18 -28.24,-62.68 11.81,-24.39 28.53,-41.94 57.69,-49.4zm-695.39 8.82c-22.77,-22.93 -86,-174.21 -87.38,-219.52 -1.62,-53.35 75.15,-34.32 108.88,-23.18 25.69,8.48 95.85,25.72 112.99,38.81 -7.78,15.46 -26.74,34.82 -38.45,48 -44.59,50.19 -86.07,142.96 -96.04,155.89zm693.38 -407.65c15.5,-34.5 99.67,-169.19 145.97,-152.38 27.55,10 74.13,184.79 72.1,230.42 -35.45,-13.46 -66.99,-32.04 -101.9,-44.98 -37.28,-13.82 -79.46,-19.66 -116.17,-33.06zm-661.16 943.43c12.03,-7.09 28.66,-23.36 42.76,-34.29l17.14 -17.34c13.23,-15.21 39.17,-36.74 56.73,-45.89 38.14,-19.87 77.16,-10.32 119.4,-13.95l56.42 -2.72c-8.07,-17.47 -27.69,-33.36 -27.72,-74.96 -0.05,-58.82 46.19,-115.67 104.14,-91.79 35.33,14.56 28.84,32.03 48.21,56.73 18.23,-22.67 14.7,-29.83 50.91,-57.02 50.7,-38.09 89.21,-58.13 156.47,-67.13 12.69,-1.7 80.85,-8.81 93.21,-4.93l9.01 5.5c-0.63,-50.58 26.62,-92.09 81.12,-82.82 21.85,3.72 42.51,17.56 52.39,28.37 14.5,15.88 17.29,29.78 29.19,48.85 13.48,-6.44 33.36,-23.09 45.94,-32.62 0.38,-0.71 1.13,-2.49 1.34,-1.99l2.69 -3.81c71.26,-93.94 87.38,-63.42 143.53,-85.57 23.31,-6.91 42.32,-19.41 68.99,-22.88 -11.67,-49.81 -36.58,-113.81 -60.24,-152.03 -32.71,-52.81 -49.71,-77.65 -87.96,-123.5 -69.81,-83.67 -57.37,-20.63 -68.68,-142.64 -8.13,-87.58 -25.38,-279.03 -90.48,-335.9 -45.75,-39.95 -91.16,30.93 -115.51,70.87 -38.04,62.42 -82.27,135.83 -115.53,201.9 -37.26,74 -16.65,59.97 -140.66,73.77 -29.86,3.32 -60.62,9.66 -88.39,17.4 -57.39,16 -107.01,39.54 -146.21,68.39 -65.15,47.95 -47.07,65.74 -133.64,18.32 -73,-39.98 -158.67,-69.01 -243.79,-76.85 -34.74,-3.19 -61.93,-3.56 -70.35,30.73 -10.86,44.22 21.35,136.74 34.81,176.24 26.9,79 52.52,151.55 101.55,215.67 21.6,28.25 30.04,24.94 63.7,44.07 -0.06,70.72 -1.04,141.52 -0.92,212.22 0.11,68.42 6.38,134.31 10.43,201.6z"></path> <path class="fil3" d="M1815.51 1025.39c34.82,-5.85 69.41,12.43 81.23,32.51 19.2,32.64 -12.65,56.5 -40.9,61.92 -84.13,16.15 -135.65,-78.42 -40.33,-94.43zm69.28 -32.88c30.65,-17.05 38.81,31.36 14.84,40.65 -12.63,4.89 -23.07,-1.55 -26.43,-11.17 -6.09,-17.46 2.77,-24.57 11.59,-29.48zm-95.67 -15.52c30.32,-15.25 35.67,31.93 14.74,41.2 -13.71,6.08 -24.18,-1.89 -27.29,-11.5 -6.12,-18.87 2.82,-24.81 12.55,-29.7zm45.6 -2.79c42.47,-1.36 38.44,33.72 21,42.94 -12.65,6.68 -25.31,0.09 -29.04,-10.67 -5.58,-16.06 3.09,-23.22 8.04,-32.27zm-836.98 1047.32c-5.36,64.5 -14.01,122.3 -8.09,189.95 8.79,100.4 66.86,213.96 25.39,337.81 -16.01,47.79 -48.88,92.14 -86.14,110.06l4.8 21.99c-9.21,0.9 -19.58,2.11 -28.52,3.73 -2.09,0.37 -11.07,2.51 -12.45,3.06l-10.11 6.55c39.11,22.66 110.3,13.93 153.11,-0.17 46.05,-15.17 79.52,-41.33 123.49,-50.48 16.23,-121.56 -44.37,-213.34 -53.11,-280.61 74.48,-20.7 151.16,-32.03 225.73,-57.06 108.37,-36.38 243.05,-163.82 312.86,-246.98 81.76,-97.42 85.79,-239.54 94.16,-257.43 13.08,-27.96 117.37,-124.11 166.34,-321.96 40.42,-163.32 15.12,-238.94 17.28,-391 0.65,-45.26 4.57,-89.73 -0.42,-134.21 -45.08,-1.43 -36.73,9.95 -46.96,-30.97 -19.95,1.07 -37.69,11.38 -49.79,10.11 -15.36,-1.61 -18.93,-15.2 -40.6,-19.39 -13.94,15.38 -13.97,41.35 -19.44,64.91 -5.42,23.29 -16.96,35.77 -27.48,53.26 -20.31,33.75 -37.16,69.51 -53,108.81 -32.9,81.62 -31.85,171.84 -69.83,253.53 -18.45,39.68 -36.35,72.75 -61.08,103.84 -62.63,78.72 -65.96,68.45 -109.85,114.11 -3.25,3.38 -6.25,5.71 -9.44,9.08 -6.63,6.99 -10.2,13.08 -18.49,21.98 -7.61,8.18 -11.3,13.27 -19.83,20.73 -54.84,47.97 -57.86,36.88 -99.52,52.53 -5.31,1.99 -3.52,1.24 -5.82,3.06 23.07,32.73 78.61,129.36 79.12,182.55 -44.55,10.53 -121.86,8.3 -161.24,-7.86 -92.88,-38.1 -71.55,-76.85 -102.13,-73.35l-5.69 17.12c-12.44,82.76 -51.45,123.63 -103.25,182.7z"></path> <path class="fil3" d="M857.33 1185.92c-57.92,-5.07 -110.56,-9.52 -131.27,-52.2 -28.3,-58.31 91.63,-110.51 143.93,-122.71 36.81,-8.58 49.03,-6.36 66.55,17.91 39.39,54.56 -27.22,96.69 -25.99,132.94 62.12,54.77 86.57,58.09 132.75,-5.59 45.28,-62.44 62.25,-6.01 19.53,41.37 -16.22,18 -34.13,27.18 -32.15,57.13 2.95,44.66 4.13,134.52 -8.19,173.05 -20.97,65.62 -86.78,20.91 -112.47,-5.34 -23.7,-24.24 -61.52,-69.97 -79.07,-103.61 -28.03,2.77 -146.91,43.95 -130.45,-23.35 16.27,-13.38 33.09,-3.17 57.88,-4.24 53.3,-2.31 104.55,-43.66 98.95,-105.36zm492.27 -335.4c11.14,8.98 103.5,10.1 135.29,105.9 46.38,139.75 -121.43,258.47 -237.03,162.47 -85.85,-71.3 -44.09,-156.88 -45.82,-177 -12.58,9.53 -32.46,26.18 -45.94,32.62 2.18,33.86 7.64,51 -10.82,78.55 -10.96,16.36 -34.64,29.8 -64.59,24.99 -55.31,-8.89 -74.92,-50.15 -87.29,-97.94l-9.01 -5.5c-12.36,-3.88 -80.52,3.23 -93.21,4.93 -67.26,9 -105.77,29.04 -156.47,67.13 -36.21,27.19 -32.68,34.35 -50.91,57.02 4.05,48.9 0.68,86.1 -27.05,110.8 -11.03,9.83 -28.72,20.57 -50.17,19.42 -23.53,-1.27 -31.82,-12.43 -47.41,-20.2l-56.42 2.72c-7.04,5.49 -2.27,2.33 -5.49,5.81 49,22.11 96.68,65.09 99.79,134.09 6.56,144.9 -169.52,209.74 -259.52,109.85 -17.8,-19.76 -31.71,-43.32 -37.65,-77.73 -5.01,-29.03 -1.04,-48.52 8.53,-74.72 5.37,-14.73 4.72,-15.08 1.07,-20.12 -14.1,10.93 -30.73,27.2 -42.76,34.29l24.64 177.4c-4.65,38.08 -38.71,50.82 14.5,58.14 32.41,4.45 51.13,17.42 43.3,58.41 63.39,1.26 88.6,40.34 193.2,62.63 83.99,17.9 144.79,0.91 223.19,-15.85 36,-7.69 187.09,-36.18 208.38,-46.76 17.89,-8.9 35.01,-35.92 86.9,-40.18 33.71,-2.77 24.88,-0.14 41.43,-21.33l88.6 -104.26c5.59,-6.5 9.44,-9.01 15.6,-15.31 69.44,-71.05 106.05,-99.94 186.97,-164.55 58.92,-47.04 142.04,-142.82 155.66,-227.51 4.28,-26.61 -7.88,-25.15 -11.94,-47.96 -4.26,-23.92 6.16,-34.56 8.55,-56.06 -51.2,-19.75 -17.23,-44.58 -38.78,-81.7 -10.2,-17.57 -30.56,-8.04 -52.11,-9.63 -16.29,-1.2 -24.28,-10.07 -36.22,-25.74 -26.67,3.47 -45.68,15.97 -68.99,22.88z"></path> <path class="fil2" d="M928.9 2659.34c37.26,-17.92 70.13,-62.27 86.14,-110.06 41.47,-123.85 -16.6,-237.41 -25.39,-337.81 -5.92,-67.65 2.73,-125.45 8.09,-189.95 -8.71,4.74 -8.96,7.88 -18.58,13.26 -21.67,-8.55 -38.15,-36.72 -49.44,-62.87 -13.49,-31.22 -16.76,-48.43 -23.33,-85.5 -19.16,4.35 -35.96,14.01 -59.84,18.68 -71.66,13.99 -149.11,-5.27 -214.63,-11.37 13.61,89.05 90.54,321.29 123.28,411.36 23.71,65.23 133.62,314.66 173.7,354.26z"></path> <path class="fil4" d="M1140.63 1605.94c38.35,18 37.72,46.11 76.69,53.88 86.73,17.3 125.95,-17.67 177.85,-77.08 27.03,-30.95 54.23,-44.24 98.87,-100.25 32.96,-41.37 53.58,-71.22 74.77,-124.24 13.27,-33.22 22.12,-64.77 28.41,-101.98 5.33,-31.54 8.85,-29.57 -7.63,-49.92 -14.12,-17.42 -12.95,-30.59 -22.6,-45.41l-45.22 63.16c-7.56,9.49 -16.18,19.03 -24,28.92l-84.2 80.61c-21.22,16.16 -43.45,30.95 -61.26,47.71 -39.41,37.07 -77.22,69.31 -111.72,105.9 -19.24,20.4 -89.13,91.37 -99.96,118.7z"></path> <path class="fil3" d="M1727.37 2372.15c-1.36,-13.93 -17.33,-37.84 -25.57,-52.58 -16.83,-30.1 -34.84,-77.48 -44.5,-111.1 -3.47,-12.09 -11.19,-53.64 -15.26,-60.6 -7.92,5.09 -30.05,27.69 -40.04,36.69 -40.37,36.35 -81.45,72.02 -125.62,104.59 -27.07,19.96 -36.15,19.52 -35.3,38.28 3.59,79.68 22.4,111.3 63.29,167.79 26.86,37.11 14.2,13.56 10.16,49.96 -2.74,24.78 16.45,36.61 32.02,44.83 33.79,17.83 88.28,23.93 124.71,5.91 52.32,-25.89 6.56,-77.41 18.89,-108.44 9.72,-24.47 38.26,-90.98 37.22,-115.33z"></path> <path class="fil5" d="M309.48 1293.61c3.65,5.04 4.3,5.39 -1.07,20.12 -9.57,26.2 -13.54,45.69 -8.53,74.72 5.94,34.41 19.85,57.97 37.65,77.73 90,99.89 266.08,35.05 259.52,-109.85 -3.11,-69 -50.79,-111.98 -99.79,-134.09 3.22,-3.48 -1.55,-0.32 5.49,-5.81 -42.24,3.63 -81.26,-5.92 -119.4,13.95 -17.56,9.15 -43.5,30.68 -56.73,45.89l-17.14 17.34z"></path> <path class="fil5" d="M1202.04 941.89c1.73,20.12 -40.03,105.7 45.82,177 115.6,96 283.41,-22.72 237.03,-162.47 -31.79,-95.8 -124.15,-96.92 -135.29,-105.9 -56.15,22.15 -72.27,-8.37 -143.53,85.57l-2.69 3.81c-0.21,-0.5 -0.96,1.28 -1.34,1.99z"></path> <path class="fil1" d="M978.74 1417.99c-31.47,-0.59 -72.47,-59.98 -89.19,-83.95 -35.11,-50.34 -22.53,-34.76 7.87,-117.55 22.01,6.34 27.5,14.45 43.62,19.43 18.11,5.58 31.29,4.73 45.61,13.67 13.59,26.55 9.48,148.43 -7.91,168.4zm-121.41 -232.07c5.6,61.7 -45.65,103.05 -98.95,105.36 -24.79,1.07 -41.61,-9.14 -57.88,4.24 -16.46,67.3 102.42,26.12 130.45,23.35 17.55,33.64 55.37,79.37 79.07,103.61 25.69,26.25 91.5,70.96 112.47,5.34 12.32,-38.53 11.14,-128.39 8.19,-173.05 -1.98,-29.95 15.93,-39.13 32.15,-57.13 42.72,-47.38 25.75,-103.81 -19.53,-41.37 -46.18,63.68 -70.63,60.36 -132.75,5.59 -1.23,-36.25 65.38,-78.38 25.99,-132.94 -17.52,-24.27 -29.74,-26.49 -66.55,-17.91 -52.3,12.2 -172.23,64.4 -143.93,122.71 20.71,42.68 73.35,47.13 131.27,52.2z"></path> <path class="fil4" d="M549.75 1743.83c14.15,94.71 121.81,105.79 220.92,109.3 39,1.37 116.82,-5.72 130.44,-33.55 5.37,-10.98 10.36,-51.95 13.45,-67.31 4.63,-22.94 14.16,-42.35 20.88,-62.95 -71.32,6.98 -192.59,45.16 -279.23,59.42 -38.67,6.37 -68.87,-1.88 -106.46,-4.91z"></path> <path class="fil3" d="M234.5 792.12c9.97,-12.93 51.45,-105.7 96.04,-155.89 11.71,-13.18 30.67,-32.54 38.45,-48 -17.14,-13.09 -87.3,-30.33 -112.99,-38.81 -33.73,-11.14 -110.5,-30.17 -108.88,23.18 1.38,45.31 64.61,196.59 87.38,219.52z"></path> <path class="fil3" d="M927.88 384.47c36.71,13.4 78.89,19.24 116.17,33.06 34.91,12.94 66.45,31.52 101.9,44.98 2.03,-45.63 -44.55,-220.42 -72.1,-230.42 -46.3,-16.81 -130.47,117.88 -145.97,152.38z"></path> <path class="fil1" d="M559.17 1213.71c15.59,7.77 23.88,18.93 47.41,20.2 21.45,1.15 39.14,-9.59 50.17,-19.42 27.73,-24.7 31.1,-61.9 27.05,-110.8 -19.37,-24.7 -12.88,-42.17 -48.21,-56.73 -57.95,-23.88 -104.19,32.97 -104.14,91.79 0.03,41.6 19.65,57.49 27.72,74.96z"></path> <path class="fil1" d="M993.4 980.11c12.37,47.79 31.98,89.05 87.29,97.94 29.95,4.81 53.63,-8.63 64.59,-24.99 18.46,-27.55 13,-44.69 10.82,-78.55 -11.9,-19.07 -14.69,-32.97 -29.19,-48.85 -9.88,-10.81 -30.54,-24.65 -52.39,-28.37 -54.5,-9.27 -81.75,32.24 -81.12,82.82z"></path> <path class="fil2" d="M1642.04 2147.87c4.07,6.96 11.79,48.51 15.26,60.6 9.66,33.62 27.67,81 44.5,111.1 8.24,14.74 24.21,38.65 25.57,52.58 18.09,-19.54 19.82,-130.99 16.54,-163.41 -5.73,-56.64 -18.36,-95.24 -32.72,-143.67l-69.15 82.8z"></path> <path class="fil6" d="M978.74 1417.99c17.39,-19.97 21.5,-141.85 7.91,-168.4 -14.32,-8.94 -27.5,-8.09 -45.61,-13.67 -16.12,-4.98 -21.61,-13.09 -43.62,-19.43 -30.4,82.79 -42.98,67.21 -7.87,117.55 16.72,23.97 57.72,83.36 89.19,83.95z"></path> <path class="fil1" d="M1843.81 529.14c0,8.81 17.56,37.82 60.41,-17.35 5.39,-6.95 7.99,-8.41 13.3,-14.69 5.29,-6.25 5.1,-7.43 11.05,-13.83l60.7 -66.82c6.16,-6.19 5.98,-6.58 11.37,-13.52 5.39,-6.94 7.97,-8.41 13.3,-14.68 5.31,-6.24 44.48,-58.34 44.48,-61.28 0,-13.31 -9.59,-24.88 -21.78,-24.88 -25.52,0 -70.65,67.66 -90.93,89.45l-61.91 71.85c-18.58,22.95 -39.99,41.84 -39.99,65.75z"></path> <path class="fil1" d="M1986.88 665.99c0,16.65 11.29,24.88 21.77,24.88 15.12,0 156.2,-85.28 186.03,-103.22 32.52,-19.56 44.93,-35.87 47.24,-47.9l0 -8.21c-2.06,-9.58 -11.36,-14.84 -18.66,-14.84 -21.82,0 -156.25,92.08 -182.55,106.71 -14.52,8.07 -53.83,27.17 -53.83,42.58z"></path> <path class="fil1" d="M1694.52 454.49c18.47,0 26.59,-2.61 33.26,-22.72 4.61,-13.88 6.05,-25.51 10.66,-39.11l28.5 -71.02c10.87,-25.14 19.12,-44.02 28.28,-71.25 7.74,-22.98 24.13,-63.38 -13.62,-63.38 -16.85,0 -18.51,9.98 -23.01,23.64 -18.85,57.2 -53.32,119.36 -71.53,174.18 -4.45,13.36 -21.3,69.66 7.46,69.66z"></path> <path class="fil4" d="M1050.14 1641.36c-75.2,24.85 -14.81,142.52 64.71,121.52 86.59,-22.88 8.07,-145.58 -64.71,-121.52z"></path> <path class="fil4" d="M982.48 1952.76c30.53,-27.87 62.1,-80.66 63.84,-140.47 -28.95,-9.6 -53.42,-38.66 -70.27,-63.76 -0.69,0.81 -1.59,1.52 -3.56,5.65 -20.11,41.96 -15.57,154.89 9.99,198.58z"></path> <path class="fil5" d="M1815.51 1025.39c-95.32,16.01 -43.8,110.58 40.33,94.43 28.25,-5.42 60.1,-29.28 40.9,-61.92 -11.82,-20.08 -46.41,-38.36 -81.23,-32.51z"></path> <path class="fil4" d="M1171.44 1793.62c15.6,39.71 70.21,58.39 124.33,59.31 -2.39,-20.41 -45.25,-119.34 -88.03,-124.83 -3.52,43.53 -12.85,45.58 -36.3,65.52z"></path> <path class="fil3" d="M595.43 894.35c-79.91,15.47 -8.64,92.18 57.15,85.9 78.11,-7.46 6.62,-98.25 -57.15,-85.9z"></path> <path class="fil3" d="M929.89 783.3c-29.16,7.46 -45.88,25.01 -57.69,49.4 -13.81,28.5 -13.86,70.72 28.24,62.68 58.58,-11.18 93.33,-128.4 29.45,-112.08z"></path> <path class="fil5" d="M1834.72 974.2c-4.95,9.05 -13.62,16.21 -8.04,32.27 3.73,10.76 16.39,17.35 29.04,10.67 17.44,-9.22 21.47,-44.3 -21,-42.94z"></path> <path class="fil5" d="M1884.79 992.51c-8.82,4.91 -17.68,12.02 -11.59,29.48 3.36,9.62 13.8,16.06 26.43,11.17 23.97,-9.29 15.81,-57.7 -14.84,-40.65z"></path> <path class="fil5" d="M1789.12 976.99c-9.73,4.89 -18.67,10.83 -12.55,29.7 3.11,9.61 13.58,17.58 27.29,11.5 20.93,-9.27 15.58,-56.45 -14.74,-41.2z"></path> </g> <path class="fil0" d="M2855.65 2340.63l0 340.01 -114.63 0 0 -125.31 -105.89 0 0 125.31 -114.63 0 0 -340.01 114.63 0 0 120.46 105.89 0 0 -120.46 114.63 0zm285.98 347.78c-52.13,0 -92.78,-14.08 -121.92,-42.25 -29.14,-28.18 -43.71,-67.69 -43.71,-118.52l0 -187.01 114.63 0 0 183.61c0,24.94 4.45,43.07 13.36,54.4 8.9,11.33 21.77,17.01 38.61,17.01 16.84,0 29.71,-5.68 38.62,-17.01 8.9,-11.33 13.36,-29.46 13.36,-54.4l0 -183.61 112.69 0 0 187.01c0,50.83 -14.58,90.34 -43.72,118.52 -29.15,28.17 -69.79,42.25 -121.92,42.25zm621.13 -347.78l0 340.01 -94.24 0 -129.2 -154.46 0 154.46 -111.71 0 0 -340.01 94.23 0 129.2 154.46 0 -154.46 111.72 0zm123.26 0l167.57 0c37.89,0 71.32,6.89 100.31,20.65 28.98,13.75 51.48,33.43 67.51,59.01 16.03,25.58 24.05,55.7 24.05,90.35 0,34.64 -8.02,64.76 -24.05,90.34 -16.03,25.59 -38.53,45.26 -67.51,59.02 -28.99,13.77 -62.42,20.64 -100.31,20.64l-167.57 0 0 -340.01zm162.71 250.64c24.62,0 44.29,-7.04 59.02,-21.13 14.74,-14.09 22.1,-33.92 22.1,-59.5 0,-25.58 -7.36,-45.42 -22.1,-59.51 -14.73,-14.08 -34.4,-21.12 -59.02,-21.12l-48.08 0 0 161.26 48.08 0zm589.09 2.91l0 86.46 -282.7 0 0 -340.01 276.37 0 0 86.47 -163.68 0 0 39.82 143.77 0 0 82.58 -143.77 0 0 44.68 170.01 0zm238.86 94.23c-28.18,0 -55.62,-3.16 -82.33,-9.47 -26.72,-6.32 -48.66,-14.81 -65.82,-25.5l36.92 -83.54c16.19,9.39 34.32,16.92 54.4,22.58 20.08,5.67 39.34,8.5 57.8,8.5 15.87,0 27.2,-1.53 34,-4.61 6.81,-3.08 10.2,-7.69 10.2,-13.84 0,-7.13 -4.46,-12.47 -13.36,-16.03 -8.91,-3.57 -23.56,-7.45 -43.96,-11.66 -26.23,-5.5 -48.08,-11.42 -65.57,-17.73 -17.48,-6.32 -32.7,-16.67 -45.66,-31.08 -12.95,-14.41 -19.42,-33.92 -19.42,-58.54 0,-21.37 5.98,-40.79 17.97,-58.29 11.98,-17.48 29.87,-31.25 53.67,-41.28 23.8,-10.04 52.7,-15.06 86.7,-15.06 23.31,0 46.23,2.51 68.73,7.53 22.51,5.02 42.34,12.39 59.5,22.1l-34.48 83.06c-33.35,-16.84 -64.93,-25.26 -94.72,-25.26 -29.47,0 -44.2,7.13 -44.2,21.38 0,6.79 4.37,11.9 13.11,15.3 8.74,3.4 23.15,7.04 43.24,10.92 25.9,4.86 47.76,10.45 65.57,16.76 17.81,6.32 33.27,16.6 46.39,30.84 13.11,14.25 19.67,33.69 19.67,58.29 0,21.38 -5.99,40.73 -17.98,58.05 -11.98,17.32 -29.87,31.09 -53.67,41.29 -23.8,10.19 -52.7,15.29 -86.7,15.29zm491.93 -67.03l-129.22 0 -22.82 59.26 -116.58 0 148.64 -340.01 112.68 0 148.64 340.01 -118.52 0 -22.82 -59.26zm-31.58 -82.57l-33.03 -85.49 -33.03 85.49 66.06 0zm259.27 -198.18l114.62 0 0 251.12 153.5 0 0 88.89 -268.12 0 0 -340.01zm540.98 347.78c-36.59,0 -69.46,-7.6 -98.6,-22.82 -29.15,-15.22 -51.97,-36.35 -68.49,-63.39 -16.52,-27.04 -24.77,-57.56 -24.77,-91.56 0,-34 8.25,-64.52 24.77,-91.56 16.52,-27.04 39.34,-48.17 68.49,-63.39 29.14,-15.22 62.01,-22.83 98.6,-22.83 36.59,0 69.46,7.61 98.6,22.83 29.14,15.22 51.98,36.35 68.49,63.39 16.52,27.04 24.77,57.56 24.77,91.56 0,34 -8.25,64.52 -24.77,91.56 -16.51,27.04 -39.35,48.17 -68.49,63.39 -29.14,15.22 -62.01,22.82 -98.6,22.82zm0 -92.76c14.25,0 27.12,-3.49 38.62,-10.45 11.49,-6.97 20.64,-16.84 27.44,-29.63 6.8,-12.79 10.2,-27.77 10.2,-44.93 0,-17.16 -3.4,-32.14 -10.2,-44.93 -6.8,-12.8 -15.95,-22.67 -27.44,-29.63 -11.5,-6.96 -24.37,-10.44 -38.62,-10.44 -14.25,0 -27.12,3.48 -38.61,10.44 -11.5,6.96 -20.65,16.83 -27.45,29.63 -6.8,12.79 -10.2,27.77 -10.2,44.93 0,17.16 3.4,32.14 10.2,44.93 6.8,12.79 15.95,22.66 27.45,29.63 11.49,6.96 24.36,10.45 38.61,10.45zm636.67 -255.02l0 340.01 -94.23 0 -129.2 -154.46 0 154.46 -111.72 0 0 -340.01 94.23 0 129.2 154.46 0 -154.46 111.72 0z"></path> </g> </svg> 